<mxfile host="65bd71144e">
    <diagram name="Page-1" id="tqgh8wIxIpG1xmtgchpj">
        <mxGraphModel dx="1927" dy="384" grid="1" gridSize="10" guides="1" tooltips="1" connect="1" arrows="1" fold="1" page="1" pageScale="1" pageWidth="850" pageHeight="1100" math="0" shadow="0">
            <root>
                <mxCell id="0"/>
                <mxCell id="1" parent="0"/>
                <mxCell id="u9Umea-9Md1OC9XHzGHI-141" value="SmartContract" style="whiteSpace=wrap;strokeWidth=2;verticalAlign=top;" parent="1" vertex="1">
                    <mxGeometry x="20" y="260" width="910" height="332" as="geometry"/>
                </mxCell>
                <mxCell id="u9Umea-9Md1OC9XHzGHI-142" value="PaymentFunctions" style="whiteSpace=wrap;strokeWidth=2;verticalAlign=top;" parent="1" vertex="1">
                    <mxGeometry x="-150" y="640" width="187" height="188" as="geometry"/>
                </mxCell>
                <mxCell id="u9Umea-9Md1OC9XHzGHI-143" value="Send Payment" style="whiteSpace=wrap;strokeWidth=2;" parent="u9Umea-9Md1OC9XHzGHI-142" vertex="1">
                    <mxGeometry x="44" y="43" width="116" height="34" as="geometry"/>
                </mxCell>
                <mxCell id="u9Umea-9Md1OC9XHzGHI-144" value="Receive Payment" style="whiteSpace=wrap;strokeWidth=2;" parent="u9Umea-9Md1OC9XHzGHI-142" vertex="1">
                    <mxGeometry x="33" y="127" width="137" height="34" as="geometry"/>
                </mxCell>
                <mxCell id="u9Umea-9Md1OC9XHzGHI-145" value="IteFunctions" style="whiteSpace=wrap;strokeWidth=2;verticalAlign=top;" parent="1" vertex="1">
                    <mxGeometry x="300" y="290" width="198" height="272" as="geometry"/>
                </mxCell>
                <mxCell id="u9Umea-9Md1OC9XHzGHI-146" value="Create Ite" style="whiteSpace=wrap;strokeWidth=2;" parent="u9Umea-9Md1OC9XHzGHI-145" vertex="1">
                    <mxGeometry x="63" y="43" width="88" height="34" as="geometry"/>
                </mxCell>
                <mxCell id="u9Umea-9Md1OC9XHzGHI-147" value="Donate to Ite" style="whiteSpace=wrap;strokeWidth=2;" parent="u9Umea-9Md1OC9XHzGHI-145" vertex="1">
                    <mxGeometry x="52" y="127" width="110" height="34" as="geometry"/>
                </mxCell>
                <mxCell id="u9Umea-9Md1OC9XHzGHI-148" value="Withdraw from Ite" style="whiteSpace=wrap;strokeWidth=2;" parent="u9Umea-9Md1OC9XHzGHI-145" vertex="1">
                    <mxGeometry x="33" y="211" width="148" height="34" as="geometry"/>
                </mxCell>
                <mxCell id="u9Umea-9Md1OC9XHzGHI-149" value="NFTFunctions&#10;(Coming soon)" style="whiteSpace=wrap;strokeWidth=2;verticalAlign=top;" parent="1" vertex="1">
                    <mxGeometry x="540" y="310" width="158" height="188" as="geometry"/>
                </mxCell>
                <mxCell id="u9Umea-9Md1OC9XHzGHI-150" value="Mint NFT" style="whiteSpace=wrap;strokeWidth=2;fontStyle=0" parent="u9Umea-9Md1OC9XHzGHI-149" vertex="1">
                    <mxGeometry x="45.5" y="77" width="83" height="34" as="geometry"/>
                </mxCell>
                <mxCell id="u9Umea-9Md1OC9XHzGHI-151" value="Transfer NFT" style="whiteSpace=wrap;strokeWidth=2;" parent="u9Umea-9Md1OC9XHzGHI-149" vertex="1">
                    <mxGeometry x="33" y="140" width="108" height="34" as="geometry"/>
                </mxCell>
                <mxCell id="u9Umea-9Md1OC9XHzGHI-152" value="ExchangeFunctions" style="whiteSpace=wrap;strokeWidth=2;verticalAlign=top;" parent="1" vertex="1">
                    <mxGeometry x="960" y="592" width="147" height="188" as="geometry"/>
                </mxCell>
                <mxCell id="u9Umea-9Md1OC9XHzGHI-153" value="XLM to Fiat" style="whiteSpace=wrap;strokeWidth=2;" parent="u9Umea-9Md1OC9XHzGHI-152" vertex="1">
                    <mxGeometry x="33" y="43" width="97" height="34" as="geometry"/>
                </mxCell>
                <mxCell id="u9Umea-9Md1OC9XHzGHI-154" value="Fiat to XLM" style="whiteSpace=wrap;strokeWidth=2;" parent="u9Umea-9Md1OC9XHzGHI-152" vertex="1">
                    <mxGeometry x="34" y="127" width="96" height="34" as="geometry"/>
                </mxCell>
                <mxCell id="u9Umea-9Md1OC9XHzGHI-155" value="Blockchain SDK" style="whiteSpace=wrap;strokeWidth=2;" parent="1" vertex="1">
                    <mxGeometry x="458" y="661" width="94" height="34" as="geometry"/>
                </mxCell>
                <mxCell id="u9Umea-9Md1OC9XHzGHI-156" value="Stellar Blockchain" style="whiteSpace=wrap;strokeWidth=2;" parent="1" vertex="1">
                    <mxGeometry x="433" y="764" width="144" height="34" as="geometry"/>
                </mxCell>
                <mxCell id="u9Umea-9Md1OC9XHzGHI-157" value="Interacts with" style="curved=1;startArrow=none;endArrow=block;exitX=0.5;exitY=1;entryX=0.5;entryY=0;rounded=0;" parent="1" source="u9Umea-9Md1OC9XHzGHI-155" target="u9Umea-9Md1OC9XHzGHI-156" edge="1">
                    <mxGeometry relative="1" as="geometry">
                        <Array as="points"/>
                    </mxGeometry>
                </mxCell>
                <mxCell id="u9Umea-9Md1OC9XHzGHI-158" value="Executes transactions" style="curved=1;startArrow=none;endArrow=block;exitX=0.5;exitY=1;entryX=0;entryY=0.3;rounded=0;" parent="1" source="u9Umea-9Md1OC9XHzGHI-142" target="u9Umea-9Md1OC9XHzGHI-155" edge="1">
                    <mxGeometry relative="1" as="geometry">
                        <Array as="points">
                            <mxPoint x="149" y="627"/>
                        </Array>
                    </mxGeometry>
                </mxCell>
                <mxCell id="u9Umea-9Md1OC9XHzGHI-159" value="Manages Ite accounts" style="curved=1;startArrow=none;endArrow=block;exitX=0.5;exitY=1;entryX=0.1;entryY=0;rounded=0;" parent="1" source="u9Umea-9Md1OC9XHzGHI-145" target="u9Umea-9Md1OC9XHzGHI-155" edge="1">
                    <mxGeometry relative="1" as="geometry">
                        <Array as="points">
                            <mxPoint x="391" y="627"/>
                        </Array>
                    </mxGeometry>
                </mxCell>
                <mxCell id="u9Umea-9Md1OC9XHzGHI-160" value="Issues NFT tokens" style="curved=1;startArrow=none;endArrow=block;exitX=0.5;exitY=1;entryX=0.9;entryY=0;rounded=0;" parent="1" source="u9Umea-9Md1OC9XHzGHI-149" target="u9Umea-9Md1OC9XHzGHI-155" edge="1">
                    <mxGeometry relative="1" as="geometry">
                        <Array as="points">
                            <mxPoint x="619" y="627"/>
                        </Array>
                    </mxGeometry>
                </mxCell>
                <mxCell id="u9Umea-9Md1OC9XHzGHI-161" value="Handles XLM-Fiat exchange" style="curved=1;startArrow=none;endArrow=block;exitX=0.5;exitY=1;entryX=1;entryY=0.27;rounded=0;" parent="1" source="u9Umea-9Md1OC9XHzGHI-152" target="u9Umea-9Md1OC9XHzGHI-155" edge="1">
                    <mxGeometry relative="1" as="geometry">
                        <Array as="points">
                            <mxPoint x="821" y="627"/>
                        </Array>
                    </mxGeometry>
                </mxCell>
                <mxCell id="2" value="Rotary Savings&#10;(Multisig contract)" style="whiteSpace=wrap;strokeWidth=2;verticalAlign=top;" vertex="1" parent="1">
                    <mxGeometry x="37" y="278" width="198" height="287" as="geometry"/>
                </mxCell>
                <mxCell id="3" value="Create Collection" style="whiteSpace=wrap;strokeWidth=2;" vertex="1" parent="2">
                    <mxGeometry x="63" y="45.37132352941177" width="88" height="35.875" as="geometry"/>
                </mxCell>
                <mxCell id="4" value="Add users" style="whiteSpace=wrap;strokeWidth=2;" vertex="1" parent="2">
                    <mxGeometry x="52" y="89.6875" width="110" height="35.875" as="geometry"/>
                </mxCell>
                <mxCell id="5" value="Settings&#10;(period, direction)" style="whiteSpace=wrap;strokeWidth=2;" vertex="1" parent="2">
                    <mxGeometry x="33" y="136.00485294117647" width="148" height="35.875" as="geometry"/>
                </mxCell>
                <mxCell id="6" value="Sign to pay user" style="whiteSpace=wrap;strokeWidth=2;" vertex="1" parent="2">
                    <mxGeometry x="33" y="184.65073529411765" width="148" height="35.875" as="geometry"/>
                </mxCell>
                <mxCell id="7" value="Withdraw and close collection" style="whiteSpace=wrap;strokeWidth=2;" vertex="1" parent="2">
                    <mxGeometry x="33" y="233.1875" width="148" height="35.875" as="geometry"/>
                </mxCell>
            </root>
        </mxGraphModel>
    </diagram>
</mxfile>